<?xml version="1.0" encoding="UTF-8" standalone="no"?>
<svg
   xmlns:dc="http://purl.org/dc/elements/1.1/"
   xmlns:cc="http://creativecommons.org/ns#"
   xmlns:rdf="http://www.w3.org/1999/02/22-rdf-syntax-ns#"
   xmlns:svg="http://www.w3.org/2000/svg"
   xmlns="http://www.w3.org/2000/svg"
   xmlns:sodipodi="http://sodipodi.sourceforge.net/DTD/sodipodi-0.dtd"
   xmlns:inkscape="http://www.inkscape.org/namespaces/inkscape"
   version="1.1"
   width="660.56903"
   height="368.48669"
   id="svg182"
   viewBox="0 0 660.56903 368.48669"
   sodipodi:docname="LOGO ALTA.svg"
   inkscape:version="1.0.2 (e86c870879, 2021-01-15)">
  <metadata
     id="metadata188">
    <rdf:RDF>
      <cc:Work
         rdf:about="">
        <dc:format>image/svg+xml</dc:format>
        <dc:type
           rdf:resource="http://purl.org/dc/dcmitype/StillImage" />
        <dc:title></dc:title>
      </cc:Work>
    </rdf:RDF>
  </metadata>
  <defs
     id="defs186" />
  <sodipodi:namedview
     pagecolor="#ffffff"
     bordercolor="#666666"
     borderopacity="1"
     objecttolerance="10"
     gridtolerance="10"
     guidetolerance="10"
     inkscape:pageopacity="0"
     inkscape:pageshadow="2"
     inkscape:window-width="1366"
     inkscape:window-height="715"
     id="namedview184"
     showgrid="false"
     inkscape:zoom="0.88866405"
     inkscape:cx="308.90979"
     inkscape:cy="263.66608"
     inkscape:window-x="0"
     inkscape:window-y="24"
     inkscape:window-maximized="1"
     inkscape:current-layer="Layer1002" />
  <g
     id="Layer1000"
     transform="translate(-112.0351,-33.971704)">
    <path
       d="m 323.5581,374.384 -30.5496,-13.6295 -17.7393,28.7194 -24.1206,-23.4272 -26.3338,36.4117 -14.7826,-30.3994 -31.7521,10.4115 -3.6613,-33.7048 -33.3407,-1.2543 7.9011,-32.9449 -30.9079,-12.7687 18.511,-28.2113 -24.7472,-22.7425 26.8883,-20.0755 -15.6017,-29.9735 32.022,-9.5179 -4.5743,-33.5895 33.2939,2.1879 7.0048,-33.1541 30.5497,13.6296 17.739,-28.7196 24.1211,23.4272 26.3333,-20.8209 14.7829,30.399 31.7523,-10.4115 3.9568,22.0438 c -14.9946,-4.7895 -31.3073,-7.418 -48.3691,-7.418 -73.6134,0 -133.2888,48.9223 -133.2888,109.2709 0,60.3486 52.6077,101.9037 133.2888,93.6807 12.4962,-1.2738 24.4396,-5.1061 37.312,-9.4397 z"
       style="fill:#ffd21f;fill-rule:evenodd"
       id="path2" />
    <g
       id="Layer1001">
      <path
         d="m 299.201,152.3837 c -40.4494,21.3598 -59.7521,56.4379 -57.3252,108.6537 -2.4989,30.8834 -14.4594,43.8459 -30.3085,48.3712 -5.7362,1.6381 -8.9294,1.8974 -14.4561,0.6812 -24.2325,-5.3376 -41.5095,-32.0212 -35.0875,-65.1527 10.3266,-53.2752 66.4155,-97.0504 137.1773,-92.5534 z"
         style="fill:#669933;fill-rule:evenodd"
         id="path4" />
      <path
         d="m 240.8322,175.4582 c -35.102,22.0102 -47.5244,63.0975 -44.2722,110.6406 -4.3013,-6.4348 -9.0102,-28.7253 -3.6982,-49.3339 6.6298,-25.7225 24.2541,-47.2647 47.9704,-61.3067 z"
         style="fill:#ccff66;fill-rule:evenodd"
         id="path6" />
      <path
         d="m 212.3674,339.4653 c -7.8893,-7.5702 -10.2312,-19.5918 -12.6733,-29.0284 3.3323,0.8135 3.7585,0.664 6.4219,0.2026 0.7023,12.539 4.9726,17.7605 11.759,25.2497 z"
         style="fill:#663300;fill-rule:evenodd;stroke:#000000;stroke-width:0.5669;stroke-linecap:round;stroke-linejoin:round;stroke-dasharray:none"
         id="path8" />
    </g>
    <g
       id="Layer1002">
      <path
         d="m 237.2411,333.5621 v -25.272 h 14.8731 v 4.3098 h -11.4928 v 5.6324 h 6.704 v 4.3098 h -6.704 v 6.2691 h 11.6337 v 4.7509 z m 20.1923,0 v -20.7173 h 1.9954 l 10.1171,13.7543 v -13.7543 h 2.6198 v 20.7173 h -2.0047 l -10.0797,-13.9748 v 13.9748 z m 31.7416,-16.897 h -9.0703 v 12.9299 h 9.0703 v -4.4079 h -4.7325 v -3.6734 h 7.5776 v 7.1507 c 0,1.8938 -0.2115,3.1836 -0.6387,3.8693 -0.4271,0.6857 -1.2441,1.0284 -2.4553,1.0284 h -8.629 c -1.2112,0 -2.0282,-0.3427 -2.4553,-1.0284 -0.4275,-0.6857 -0.6384,-1.9755 -0.6384,-3.8693 v -10.9301 c 0,-1.8856 0.2109,-3.1754 0.6384,-3.8611 0.4271,-0.6854 1.2441,-1.0284 2.4553,-1.0284 h 8.629 c 1.2019,0 2.0188,0.3348 2.446,1.0041 0.432,0.6774 0.648,1.8856 0.648,3.6487 v 0.5389 l -2.8451,0.8325 z m 7.7981,16.897 v -20.7173 h 12.7885 v 3.6734 h -9.8592 v 4.5057 h 5.7467 v 3.5753 h -5.7467 v 5.0936 h 10.0001 v 3.8693 z m 17.1218,0 v -20.7173 h 1.9953 l 10.1171,13.7543 v -13.7543 h 2.6198 v 20.7173 h -2.0046 l -10.0798,-13.9748 v 13.9748 z m 20.0514,0 v -20.7173 h 2.9296 v 7.8854 h 9.0703 v -7.8854 h 2.9016 v 20.7173 h -2.9016 v -8.7179 h -9.0703 v 8.7179 z m 18.4176,0 7.0704,-20.7173 h 2.7936 l 7.1781,20.7173 h -3.2581 l -1.5024,-4.555 h -7.8777 l -1.5024,4.555 z m 5.6387,-8.3262 h 5.46 l -2.7748,-8.636 z m 23.8589,-8.8157 h -6.6243 v 5.7302 h 6.6243 c 0.5023,0 0.8495,-0.1304 1.0375,-0.3835 0.1879,-0.2532 0.2817,-0.6857 0.2817,-1.2898 v -2.3837 c 0,-0.604 -0.0938,-1.0366 -0.2817,-1.2897 -0.188,-0.2529 -0.5352,-0.3835 -1.0375,-0.3835 z m -9.4978,17.1419 v -20.7173 h 10.7326 c 0.981,0 1.69,0.3183 2.1313,0.9468 0.4366,0.6287 0.6574,1.6571 0.6574,3.0858 v 4.8648 c 0,1.4122 -0.2208,2.4245 -0.6574,3.045 -0.4413,0.6284 -1.1503,0.9385 -2.1313,0.9385 h -1.6339 l 5.6619,7.8364 h -4.1644 l -4.9904,-7.8364 h -2.7323 v 7.8364 z m 18.305,0 v -20.7173 h 2.9016 v 20.7173 z m 6.3944,0 7.0705,-20.7173 h 2.7932 l 7.1785,20.7173 h -3.2584 l -1.5024,-4.555 h -7.8775 l -1.5023,4.555 z m 5.6384,-8.3262 h 5.4601 l -2.7745,-8.636 z m 25.2675,8.3262 v -20.7173 h 12.7885 v 3.6734 h -9.8589 v 4.5057 h 5.7464 v 3.5753 h -5.7464 v 5.0936 h 9.9998 v 3.8693 z m 29.0985,0 v -25.272 h 14.8731 v 4.3098 h -11.4928 v 5.6324 h 6.7039 v 4.3098 h -6.7039 v 6.2691 h 11.6336 v 4.7509 z m 20.192,0 v -20.7173 h 1.9956 l 10.1171,13.7543 v -13.7543 h 2.6198 v 20.7173 h -2.0047 l -10.0797,-13.9748 v 13.9748 z m 20.0517,0 v -20.7173 h 12.7885 v 3.6734 h -9.8592 v 4.5057 h 5.7467 v 3.5753 h -5.7467 v 5.0936 h 10.0001 v 3.8693 z m 26.6193,-17.1419 h -6.6243 v 5.7302 h 6.6243 c 0.5023,0 0.8498,-0.1304 1.0375,-0.3835 0.1879,-0.2532 0.2818,-0.6857 0.2818,-1.2898 v -2.3837 c 0,-0.604 -0.0939,-1.0366 -0.2818,-1.2897 -0.1877,-0.2529 -0.5352,-0.3835 -1.0375,-0.3835 z m -9.4975,17.1419 v -20.7173 h 10.7323 c 0.9813,0 1.69,0.3183 2.1314,0.9468 0.4365,0.6287 0.6573,1.6571 0.6573,3.0858 v 4.8648 c 0,1.4122 -0.2208,2.4245 -0.6573,3.045 -0.4414,0.6284 -1.1501,0.9385 -2.1314,0.9385 h -1.6339 l 5.6619,7.8364 h -4.1641 l -4.9906,-7.8364 h -2.7324 v 7.8364 z m 29.9951,-16.897 h -9.0703 v 12.9299 h 9.0703 v -4.4079 h -4.7324 v -3.6734 h 7.5773 v 7.1507 c 0,1.8938 -0.2112,3.1836 -0.6384,3.8693 -0.4272,0.6857 -1.2441,1.0284 -2.4554,1.0284 h -8.6289 c -1.2112,0 -2.0285,-0.3427 -2.4554,-1.0284 -0.4274,-0.6857 -0.6386,-1.9755 -0.6386,-3.8693 v -10.9301 c 0,-1.8856 0.2112,-3.1754 0.6386,-3.8611 0.4269,-0.6854 1.2442,-1.0284 2.4554,-1.0284 h 8.6289 c 1.2019,0 2.0186,0.3348 2.4461,1.0041 0.4317,0.6774 0.6477,1.8856 0.6477,3.6487 v 0.5389 l -2.8449,0.8325 z m 7.7979,16.897 v -20.7173 h 2.9015 v 20.7173 z m 6.3943,0 7.0705,-20.7173 h 2.7933 l 7.1784,20.7173 h -3.2581 l -1.5024,-4.555 h -7.8777 l -1.5024,4.555 z m 5.6384,-8.3262 h 5.4601 l -2.7745,-8.636 z m 38.9296,-12.5379 h -9.5212 v 5.4363 h 9.0657 c 1.4273,0 2.3848,0.4246 2.8871,1.2654 0.5026,0.8489 0.7515,2.4162 0.7515,4.7179 v 3.4776 c 0,2.2856 -0.2489,3.8608 -0.7515,4.7018 -0.5023,0.8408 -1.4598,1.2651 -2.8871,1.2651 h -8.9813 c -1.4224,0 -2.3848,-0.4243 -2.8825,-1.2651 -0.5023,-0.841 -0.7512,-2.4162 -0.7512,-4.7018 v -0.6939 l 2.986,-1.0775 v 2.9874 h 10.2816 v -5.7792 h -9.0703 c -1.4134,0 -2.3664,-0.4244 -2.8639,-1.2651 -0.4929,-0.8408 -0.7418,-2.4081 -0.7418,-4.7019 v -2.7997 c 0,-2.2938 0.2489,-3.8611 0.7418,-4.7101 0.4975,-0.8407 1.4505,-1.2651 2.8639,-1.2651 h 8.2533 c 1.3663,0 2.3097,0.4079 2.8264,1.2161 0.521,0.8164 0.7793,2.2529 0.7793,4.3262 v 0.5307 l -2.9858,1.2245 z m 11.7463,16.897 h 9.6054 v -12.9299 h -9.6054 z m -2.9013,-11.8525 c 0,-1.8938 0.2112,-3.1754 0.6335,-3.8693 0.4227,-0.6854 1.2396,-1.0284 2.4602,-1.0284 h 9.2206 c 1.2299,0 2.0517,0.343 2.4695,1.0284 0.4178,0.6939 0.6242,1.9755 0.6242,3.8693 v 10.9219 c 0,1.8938 -0.2112,3.1836 -0.6384,3.8693 -0.4272,0.6857 -1.2441,1.0284 -2.4553,1.0284 h -9.2206 c -1.2206,0 -2.0375,-0.3427 -2.4602,-1.0284 -0.4223,-0.6857 -0.6335,-1.9755 -0.6335,-3.8693 z m 20.4174,15.8196 v -20.7173 h 2.9296 v 16.848 h 9.352 v 3.8693 z m 13.7418,0 7.0704,-20.7173 h 2.7933 l 7.1784,20.7173 h -3.2584 l -1.5021,-4.555 h -7.8777 l -1.5024,4.555 z m 5.6384,-8.3262 h 5.4601 l -2.7746,-8.636 z m 23.8589,-8.8157 h -6.6243 v 5.7302 h 6.6243 c 0.5023,0 0.8498,-0.1304 1.0378,-0.3835 0.1876,-0.2532 0.2817,-0.6857 0.2817,-1.2898 v -2.3837 c 0,-0.604 -0.0941,-1.0366 -0.2817,-1.2897 -0.188,-0.2529 -0.5355,-0.3835 -1.0378,-0.3835 z m -9.4975,17.1419 v -20.7173 h 10.7326 c 0.981,0 1.69,0.3183 2.131,0.9468 0.4369,0.6287 0.6574,1.6571 0.6574,3.0858 v 4.8648 c 0,1.4122 -0.2205,2.4245 -0.6574,3.045 -0.441,0.6284 -1.15,0.9385 -2.131,0.9385 h -1.6339 l 5.6619,7.8364 h -4.1644 l -4.9904,-7.8364 h -2.7326 v 7.8364 z"
         style="fill:#000000;fill-rule:evenodd"
         id="path11" />
      <path
         d="m 283.7466,174.308 c 35.5978,-9.1916 71.4206,-18.9708 107.447,-29.2294 3.473,-0.9887 5.4592,0.4209 4.4977,3.073 -3.3188,9.1573 -6.6526,18.2543 -9.9159,27.3317 -0.9626,2.6781 -4.4971,5.4793 -7.857,6.2254 -35.3815,7.8565 -70.6493,15.3836 -105.6589,22.4158 -3.2981,0.6622 -5.3612,-0.5595 -4.5516,-2.6713 2.7663,-7.2122 5.6217,-14.4624 8.4524,-21.6686 0.8532,-2.1714 4.2808,-4.6239 7.5863,-5.4766 z"
         style="fill:#007ee5;fill-rule:evenodd;stroke:#000000;stroke-width:0.5669;stroke-linecap:round;stroke-linejoin:round;stroke-dasharray:none"
         id="path13" />
      <path
         d="m 305.5825,197.0178 c 0.0541,-0.1069 0.1629,-0.267 0.2168,-0.4272 1.3005,-3.4203 2.5467,-6.8131 3.8472,-10.2067 1.3005,-3.4194 2.5466,-6.8131 3.8472,-10.2325 1.3005,-3.42 2.6546,-6.84 3.9552,-10.26 0.0544,-0.1332 0.1088,-0.267 0.1624,-0.4272"
         style="fill:none;stroke:#000000;stroke-width:0.5669;stroke-linecap:round;stroke-linejoin:round;stroke-dasharray:none"
         id="path15" />
      <path
         d="m 344.4868,188.7352 c 0.0545,-0.1601 0.1625,-0.2939 0.2169,-0.4543 1.4085,-3.6871 2.6552,-7.3472 4.0096,-11.0345 1.4085,-3.6864 2.7091,-7.3735 4.1179,-11.0877 1.3547,-3.6601 2.7091,-7.3474 4.172,-11.0608 0,-0.1332 0.0544,-0.3206 0.1089,-0.481"
         style="fill:none;stroke:#000000;stroke-width:0.5669;stroke-linecap:round;stroke-linejoin:round;stroke-dasharray:none"
         id="path17" />
      <path
         d="m 270.1457,195.0939 c 0.1633,-0.0263 0.3796,-0.0799 0.542,-0.1332 12.9501,-2.8055 25.9004,-5.6106 38.9588,-8.5768 12.9501,-2.992 26.0084,-6.0381 39.0668,-9.1375 13.0039,-3.1257 26.1711,-6.3847 39.2836,-9.591 0.1628,-0.0536 0.3796,-0.1069 0.5965,-0.1604"
         style="fill:none;stroke:#000000;stroke-width:0.5669;stroke-linecap:round;stroke-linejoin:round;stroke-dasharray:none"
         id="path19" />
      <path
         d="m 273.8305,185.6631 c 0.1624,-0.0273 0.3792,-0.1069 0.5419,-0.1341 13.0584,-3.1258 26.0629,-6.1447 39.1213,-9.3776 13.0583,-3.2332 26.1708,-6.5727 39.3375,-9.9927 13.1125,-3.3658 26.2797,-6.9199 39.4461,-10.4196 0.2168,-0.0799 0.3795,-0.1068 0.5964,-0.1868"
         style="fill:none;stroke:#000000;stroke-width:0.5669;stroke-linecap:round;stroke-linejoin:round;stroke-dasharray:none"
         id="path21" />
      <path
         d="m 271.3382,206.4759 c 34.9535,-6.8341 70.1643,-14.2447 105.4968,-21.8821 3.3545,-0.7251 5.3453,0.9261 4.3888,3.5802 -3.2697,9.0748 -6.4924,18.1205 -9.6448,27.1984 -0.9111,2.624 -4.2798,5.2467 -7.5856,5.7444 -34.6226,5.2195 -69.1894,10.2733 -103.5462,14.9355 -3.247,0.4405 -5.3169,-0.9394 -4.5515,-3.0461 2.5937,-7.1368 5.2452,-14.3263 7.965,-21.5076 0.8017,-2.1158 4.1772,-4.3776 7.4775,-5.0227 z"
         style="fill:#007ee5;fill-rule:evenodd;stroke:#000000;stroke-width:0.5669;stroke-linecap:round;stroke-linejoin:round;stroke-dasharray:none"
         id="path23" />
      <path
         d="m 293.2285,231.1897 c 0,-0.134 0.1086,-0.2673 0.163,-0.4274 1.1917,-3.3937 2.3298,-6.7332 3.6303,-10.1795 1.1917,-3.3667 2.3837,-6.7332 3.6304,-10.1526 1.2461,-3.3936 2.4922,-6.7867 3.8466,-10.2067 0,-0.1069 0.0544,-0.2401 0.1085,-0.4003"
         style="fill:none;stroke:#000000;stroke-width:0.5669;stroke-linecap:round;stroke-linejoin:round;stroke-dasharray:none"
         id="path25" />
      <path
         d="m 331.3202,225.6591 c 0.0538,-0.1605 0.1083,-0.2943 0.1627,-0.4547 1.2461,-3.6601 2.4922,-7.3202 3.8472,-11.0072 1.3005,-3.6338 2.5466,-7.2939 3.9552,-11.0075 1.3005,-3.6338 2.5466,-7.2944 4.0096,-11.0081 0,-0.1332 0.0544,-0.267 0.1082,-0.4272"
         style="fill:none;stroke:#000000;stroke-width:0.5669;stroke-linecap:round;stroke-linejoin:round;stroke-dasharray:none"
         id="path27" />
      <path
         d="m 258.2254,226.7274 c 0.1625,-0.0263 0.3793,-0.0796 0.542,-0.1068 12.7333,-1.9769 25.4668,-3.9272 38.2544,-6.0378 12.7327,-2.0574 25.5203,-4.195 38.3083,-6.3856 12.7871,-2.1912 25.6291,-4.4351 38.4707,-6.6799 0.1624,-0.0533 0.3792,-0.0796 0.5961,-0.1068"
         style="fill:none;stroke:#000000;stroke-width:0.5669;stroke-linecap:round;stroke-linejoin:round;stroke-dasharray:none"
         id="path29" />
      <path
         d="m 261.6934,217.3229 c 0.1624,-0.0263 0.3792,-0.0533 0.5417,-0.1068 12.7879,-2.2176 25.575,-4.4351 38.4171,-6.7859 12.8415,-2.3244 25.683,-4.7557 38.6331,-7.2405 12.8415,-2.4582 25.7374,-4.9964 38.6875,-7.5345 0.1624,-0.0536 0.3793,-0.0805 0.542,-0.1338"
         style="fill:none;stroke:#000000;stroke-width:0.5669;stroke-linecap:round;stroke-linejoin:round;stroke-dasharray:none"
         id="path31" />
      <g
         id="Layer1003">
        <path
           d="m 259.5804,238.4031 c 34.3551,-4.5151 68.8144,-9.3771 103.3835,-14.4003 3.3049,-0.4802 5.1313,1.3283 4.2262,4.007 -3.0495,9.0233 -6.1075,18.0953 -9.1571,27.1185 -0.9051,2.6788 -4.2253,5.0698 -7.423,5.3164 -33.8636,2.6121 -67.6764,5.1086 -101.3789,7.4548 -3.1422,0.2183 -5.159,-1.3416 -4.4433,-3.4469 2.4268,-7.1391 4.9632,-14.3042 7.4775,-21.4543 0.7362,-2.094 4.0669,-4.1686 7.3151,-4.5952 z"
           style="fill:#007ee5;fill-rule:evenodd;stroke:#000000;stroke-width:0.5669;stroke-linecap:round;stroke-linejoin:round;stroke-dasharray:none"
           id="path33" />
        <path
           d="m 281.3624,265.2545 c 0.1083,-0.1338 0.1624,-0.2679 0.1624,-0.4011 1.0837,-3.3664 2.2757,-6.7595 3.4679,-10.1523 1.0837,-3.3667 2.3298,-6.7597 3.4679,-10.1525 1.1917,-3.3667 2.3843,-6.7595 3.5759,-10.1532 0.0545,-0.1332 0.0545,-0.2673 0.1625,-0.4005"
           style="fill:none;stroke:#000000;stroke-width:0.5669;stroke-linecap:round;stroke-linejoin:round;stroke-dasharray:none"
           id="path35" />
        <path
           d="m 318.6414,262.4757 c 0.0536,-0.1604 0.108,-0.2942 0.2163,-0.4544 1.1378,-3.6331 2.3842,-7.2938 3.6303,-10.9539 1.1923,-3.6601 2.4928,-7.321 3.7389,-10.9811 1.3005,-3.6601 2.5466,-7.3208 3.8472,-10.9809 0.0538,-0.1604 0.0538,-0.2673 0.1083,-0.4274"
           style="fill:none;stroke:#000000;stroke-width:0.5669;stroke-linecap:round;stroke-linejoin:round;stroke-dasharray:none"
           id="path37" />
        <path
           d="m 246.9552,258.1739 c 0.1624,0 0.3248,-0.0264 0.5417,-0.0536 12.5166,-1.122 24.925,-2.2176 37.4958,-3.4192 12.4078,-1.1761 24.9786,-2.378 37.4953,-3.6337 12.5164,-1.256 25.0872,-2.5381 37.6038,-3.8205 0.2169,-0.027 0.3793,-0.0533 0.5962,-0.0805"
           style="fill:none;stroke:#000000;stroke-width:0.5669;stroke-linecap:round;stroke-linejoin:round;stroke-dasharray:none"
           id="path39" />
        <path
           d="m 250.2062,248.8226 c 0.1625,-0.0263 0.3249,-0.0532 0.5417,-0.0532 12.5167,-1.3893 25.0875,-2.7783 37.7127,-4.2208 12.5703,-1.4434 25.1411,-2.9393 37.7663,-4.4623 12.5708,-1.5231 25.2499,-3.1258 37.8745,-4.6752 0.1625,0 0.3793,-0.0533 0.542,-0.0805"
           style="fill:none;stroke:#000000;stroke-width:0.5669;stroke-linecap:round;stroke-linejoin:round;stroke-dasharray:none"
           id="path41" />
      </g>
      <path
         d="m 248.4181,270.2239 c 33.6476,-2.1739 67.4059,-4.4529 101.2165,-6.8933 3.1966,-0.2304 5.0649,1.7504 4.172,4.4351 -3.0081,9.0443 -5.9488,18.1197 -8.9943,27.1715 -0.9097,2.7037 -4.1726,4.8626 -7.3151,4.8626 -33.1067,0 -66.1045,0 -99.1576,0 -3.0884,0 -5.0179,-1.7005 -4.2804,-3.8469 2.4591,-7.1507 4.8501,-14.36 7.3151,-21.5082 0.7322,-2.1226 3.9011,-4.0181 7.0438,-4.2208 z"
         style="fill:#007ee5;fill-rule:evenodd;stroke:#000000;stroke-width:0.5669;stroke-linecap:round;stroke-linejoin:round;stroke-dasharray:none"
         id="path44" />
      <path
         d="m 408.6955,139.6817 c 36.1347,-10.7388 72.3348,-21.621 108.5851,-32.6486 3.3579,-1.021 5.2676,0.8606 4.1182,4.195 -3.8889,11.2796 -7.7213,22.5621 -11.5951,33.7969 -1.1654,3.3792 -4.8762,6.7669 -8.2364,7.5617 -35.4892,8.3954 -71.0373,16.744 -106.4721,24.9803 -3.4146,0.7934 -5.3544,-0.7968 -4.3889,-3.4999 3.2604,-9.1321 6.6078,-18.303 9.9697,-27.5454 0.972,-2.6734 4.6009,-5.8241 8.0195,-6.84 z"
         style="fill:#019fe8;fill-rule:evenodd;stroke:#000000;stroke-width:0.5669;stroke-linecap:round;stroke-linejoin:round;stroke-dasharray:none"
         id="path46" />
      <path
         d="m 428.9063,169.2317 c 0.0538,-0.1604 0.108,-0.3206 0.1624,-0.5079 1.5168,-4.3013 3.0342,-8.6295 4.5516,-12.9314 1.5168,-4.3013 3.1422,-8.6295 4.6596,-12.9577 1.5174,-4.3019 3.0342,-8.6032 4.5516,-12.9314 0.108,-0.2137 0.1624,-0.347 0.2168,-0.5343"
         style="fill:none;stroke:#000000;stroke-width:0.5669;stroke-linecap:round;stroke-linejoin:round;stroke-dasharray:none"
         id="path48" />
      <path
         d="m 468.1358,159.9605 c 0.0541,-0.1605 0.0541,-0.347 0.108,-0.5344 1.6254,-4.5955 3.251,-9.2171 4.8764,-13.8659 1.5718,-4.5955 3.2511,-9.218 4.8229,-13.8135 1.6798,-4.6752 3.3052,-9.2704 4.822,-13.866 0.0544,-0.1873 0.1089,-0.3747 0.2713,-0.6148"
         style="fill:none;stroke:#000000;stroke-width:0.5669;stroke-linecap:round;stroke-linejoin:round;stroke-dasharray:none"
         id="path50" />
      <path
         d="m 393.6322,165.9983 c 0.2169,-0.0797 0.3793,-0.0797 0.5961,-0.1602 13.1123,-3.3395 26.2792,-6.6526 39.392,-10.0457 13.1128,-3.3658 26.2791,-6.8131 39.4999,-10.2322 13.1128,-3.42 26.2797,-6.8403 39.3925,-10.2603 0.2163,-0.0533 0.4332,-0.1069 0.5956,-0.1602"
         style="fill:none;stroke:#000000;stroke-width:0.5669;stroke-linecap:round;stroke-linejoin:round;stroke-dasharray:none"
         id="path52" />
      <path
         d="m 398.0211,153.9488 c 0.2163,-0.0797 0.4331,-0.1069 0.5958,-0.1602 13.1125,-3.6068 26.3878,-7.2405 39.663,-10.9539 13.1672,-3.6601 26.388,-7.3744 39.6632,-11.088 13.2208,-3.7406 26.4416,-7.454 39.6629,-11.221 0.2707,-0.0805 0.3787,-0.1068 0.5956,-0.1604"
         style="fill:none;stroke:#000000;stroke-width:0.5669;stroke-linecap:round;stroke-linejoin:round;stroke-dasharray:none"
         id="path54" />
      <path
         d="m 394.0115,180.5332 c 35.3818,-8.0141 70.8772,-16.141 106.3097,-24.3397 3.363,-0.7778 5.2231,1.2671 4.0635,4.5953 -3.9334,11.2858 -7.6717,22.4824 -11.4866,33.7708 -1.1149,3.2987 -4.8223,6.5273 -8.0739,7.0537 -34.6765,5.6177 -69.4094,11.1736 -104.0879,16.6451 -3.2499,0.5125 -5.1783,-1.2456 -4.2265,-3.9816 3.166,-9.0989 6.2484,-18.2662 9.5905,-27.4121 0.9927,-2.7168 4.6066,-5.5834 7.9112,-6.3315 z"
         style="fill:#019fe8;fill-rule:evenodd;stroke:#000000;stroke-width:0.5669;stroke-linecap:round;stroke-linejoin:round;stroke-dasharray:none"
         id="path56" />
      <path
         d="m 413.843,212.5409 c 0.0538,-0.1602 0.1082,-0.3475 0.1627,-0.5349 1.4085,-4.2744 2.9259,-8.5762 4.4427,-12.8775 1.463,-4.2747 2.9804,-8.5765 4.3889,-12.905 1.5174,-4.2747 3.0886,-8.6029 4.6599,-12.9042 0.0541,-0.1868 0.1085,-0.3478 0.163,-0.5343"
         style="fill:none;stroke:#000000;stroke-width:0.5669;stroke-linecap:round;stroke-linejoin:round;stroke-dasharray:none"
         id="path58" />
      <path
         d="m 452.1512,206.3421 c 0.0539,-0.1605 0.1083,-0.347 0.1627,-0.5344 1.571,-4.5955 3.1428,-9.2171 4.7682,-13.8126 1.5712,-4.5955 3.1425,-9.218 4.6596,-13.8396 1.5712,-4.5955 3.1966,-9.1911 4.8767,-13.8399 0.0541,-0.1601 0.1086,-0.3475 0.1624,-0.5612"
         style="fill:none;stroke:#000000;stroke-width:0.5669;stroke-linecap:round;stroke-linejoin:round;stroke-dasharray:none"
         id="path60" />
      <path
         d="m 379.3277,206.2621 c 0.1625,-0.0269 0.3788,-0.0532 0.5417,-0.1068 12.8416,-2.3244 25.6831,-4.6225 38.579,-7.0268 12.8421,-2.3777 25.738,-4.7557 38.6337,-7.1334 12.8415,-2.4049 25.683,-4.7829 38.5789,-7.2142 0.1625,-0.0263 0.3793,-0.0796 0.5417,-0.1066"
         style="fill:none;stroke:#000000;stroke-width:0.5669;stroke-linecap:round;stroke-linejoin:round;stroke-dasharray:none"
         id="path62" />
      <path
         d="m 383.4456,194.2926 c 0.2169,-0.0267 0.3793,-0.08 0.5962,-0.1333 12.9495,-2.6186 25.8454,-5.2373 38.7955,-7.9358 12.9504,-2.6448 25.9004,-5.3433 38.9044,-8.068 12.9503,-2.6986 25.8998,-5.3975 38.8502,-8.096 0.2169,-0.0797 0.3793,-0.0797 0.5961,-0.1333"
         style="fill:none;stroke:#000000;stroke-width:0.5669;stroke-linecap:round;stroke-linejoin:round;stroke-dasharray:none"
         id="path64" />
      <path
         d="m 379.6526,221.2237 c 34.6762,-5.2753 69.3592,-10.6339 103.9799,-16.0308 3.2539,-0.5071 5.1256,1.779 4.009,5.0769 -3.8137,11.2626 -7.5509,22.4872 -11.2702,33.7175 -1.103,3.3301 -4.6596,6.2853 -7.8024,6.5458 -33.8644,2.8111 -67.731,5.5774 -101.5951,8.3358 -3.1972,0.26 -5.1653,-1.7682 -4.2809,-4.4087 3.0708,-9.1695 6.2257,-18.2509 9.3198,-27.3852 0.915,-2.7009 4.3886,-5.3564 7.6399,-5.8513 z"
         style="fill:#019fe8;fill-rule:evenodd;stroke:#000000;stroke-width:0.5669;stroke-linecap:round;stroke-linejoin:round;stroke-dasharray:none"
         id="path66" />
      <path
         d="m 399.3216,255.7426 c 0,-0.1605 0.0539,-0.3206 0.1083,-0.5343 1.4086,-4.275 2.8174,-8.5496 4.2803,-12.8509 1.4091,-4.2749 2.926,-8.5499 4.3353,-12.8781 1.4086,-4.2477 2.9254,-8.5759 4.3884,-12.8781 0.0544,-0.1601 0.1088,-0.3469 0.1624,-0.5071"
         style="fill:none;stroke:#000000;stroke-width:0.5669;stroke-linecap:round;stroke-linejoin:round;stroke-dasharray:none"
         id="path68" />
      <path
         d="m 436.6545,252.6437 c 0.0544,-0.1873 0.108,-0.3738 0.1624,-0.5876 1.5718,-4.5955 3.0886,-9.1644 4.6057,-13.7863 1.4633,-4.5955 3.0887,-9.1907 4.5516,-13.7599 1.5713,-4.5953 3.1422,-9.2171 4.6596,-13.8396 0.1089,-0.1604 0.1627,-0.3206 0.2169,-0.5074"
         style="fill:none;stroke:#000000;stroke-width:0.5669;stroke-linecap:round;stroke-linejoin:round;stroke-dasharray:none"
         id="path70" />
      <path
         d="m 365.5106,246.4186 c 0.1627,0 0.3795,-0.0272 0.5419,-0.0805 12.5164,-1.3088 25.0331,-2.6181 37.6577,-3.9807 12.5708,-1.3629 25.0875,-2.6986 37.7124,-4.0876 12.5167,-1.3629 25.0331,-2.6986 37.6042,-4.0612 0.1624,-0.0269 0.3792,-0.0533 0.5417,-0.0805"
         style="fill:none;stroke:#000000;stroke-width:0.5669;stroke-linecap:round;stroke-linejoin:round;stroke-dasharray:none"
         id="path72" />
      <path
         d="m 369.574,234.4487 c 0.1627,-0.0263 0.3796,-0.0263 0.542,-0.0799 12.5708,-1.6033 25.3043,-3.2326 37.9295,-4.8895 12.6247,-1.6563 25.3035,-3.3126 37.9287,-4.9694 12.6791,-1.6832 25.3044,-3.3395 37.929,-4.9958 0.1624,-0.0533 0.3793,-0.0533 0.5417,-0.0805"
         style="fill:none;stroke:#000000;stroke-width:0.5669;stroke-linecap:round;stroke-linejoin:round;stroke-dasharray:none"
         id="path74" />
      <path
         d="m 365.9981,261.8345 c 33.8105,-2.5373 67.6222,-5.1304 101.4333,-7.7213 3.1416,-0.2406 4.8849,2.2751 3.7927,5.6106 -3.6757,11.2244 -7.289,22.5083 -10.891,33.7445 -1.057,3.2973 -4.5521,6.0089 -7.6399,6.0109 -33.1067,0.0244 -66.1592,0.0533 -99.1573,0.0533 -3.1428,0 -4.9402,-2.1977 -4.0641,-4.8889 2.9705,-9.1177 6.0344,-18.2931 9.0488,-27.4391 0.8861,-2.6893 4.2814,-5.1305 7.4775,-5.37 z"
         style="fill:#019fe8;fill-rule:evenodd;stroke:#000000;stroke-width:0.5669;stroke-linecap:round;stroke-linejoin:round;stroke-dasharray:none"
         id="path76" />
      <path
         d="m 534.8367,101.3953 c 36.1956,-10.9763 72.3892,-21.9382 108.5851,-32.6217 3.3585,-0.9913 5.1137,1.4275 3.7927,5.3969 -4.4762,13.4498 -8.9132,26.9702 -13.3291,40.3435 -1.3268,4.0198 -5.2041,7.8704 -8.5073,8.6295 -35.492,8.1641 -71.0407,16.5376 -106.526,24.9812 -3.3641,0.7999 -5.1729,-1.2427 -4.0096,-4.6488 3.8755,-11.342 7.7613,-22.7305 11.6498,-34.0915 1.1498,-3.3607 4.9862,-6.9706 8.3444,-7.9891 z"
         style="fill:#00bcec;fill-rule:evenodd;stroke:#000000;stroke-width:0.5669;stroke-linecap:round;stroke-linejoin:round;stroke-dasharray:none"
         id="path78" />
      <path
         d="m 552.7171,139.4952 c 0.1085,-0.2138 0.1624,-0.4275 0.2168,-0.6684 1.8423,-5.2365 3.5759,-10.5001 5.3646,-15.7901 1.7881,-5.2898 3.5759,-10.5265 5.4184,-15.8434 1.7878,-5.2628 3.5759,-10.5537 5.3637,-15.8434 0.0545,-0.2138 0.1089,-0.4006 0.2169,-0.6412"
         style="fill:none;stroke:#000000;stroke-width:0.5669;stroke-linecap:round;stroke-linejoin:round;stroke-dasharray:none"
         id="path80" />
      <path
         d="m 591.8927,130.2508 c 0.108,-0.2406 0.2169,-0.4544 0.2707,-0.6945 1.8967,-5.5842 3.7389,-11.1412 5.5812,-16.7255 1.8963,-5.584 3.7386,-11.1413 5.6352,-16.7253 1.8961,-5.5836 3.7928,-11.1412 5.6353,-16.7249 0.0536,-0.2135 0.108,-0.4272 0.2163,-0.7215"
         style="fill:none;stroke:#000000;stroke-width:0.5669;stroke-linecap:round;stroke-linejoin:round;stroke-dasharray:none"
         id="path82" />
      <path
         d="m 518.256,133.5098 c 0.1624,-0.0533 0.3793,-0.1068 0.5961,-0.1601 13.1128,-3.4195 26.2792,-6.8664 39.4464,-10.313 13.1122,-3.3928 26.2791,-6.8128 39.4461,-10.2059 13.1122,-3.3395 26.2794,-6.6526 39.3919,-9.9658 0.1624,-0.0263 0.3793,-0.0535 0.542,-0.1068"
         style="fill:none;stroke:#000000;stroke-width:0.5669;stroke-linecap:round;stroke-linejoin:round;stroke-dasharray:none"
         id="path84" />
      <path
         d="m 523.3493,118.6288 c 0.2168,-0.0805 0.3796,-0.1341 0.5964,-0.1874 13.1664,-3.7137 26.496,-7.5075 39.7712,-11.2481 13.1664,-3.6871 26.3877,-7.4007 39.6629,-11.0878 13.1664,-3.6601 26.3875,-7.2405 39.5544,-10.8206 0.2169,-0.0536 0.4331,-0.1069 0.5961,-0.1605"
         style="fill:none;stroke:#000000;stroke-width:0.5669;stroke-linecap:round;stroke-linejoin:round;stroke-dasharray:none"
         id="path86" />
      <path
         d="m 517.5516,151.8117 c 35.4886,-8.2114 70.9288,-16.3726 106.418,-24.3397 3.3057,-0.7421 4.9365,1.8219 3.5764,5.8777 -4.4914,13.3923 -8.8194,26.9115 -13.3296,40.3171 -1.3411,3.9867 -5.0927,7.6468 -8.2905,8.1488 -34.7303,5.4555 -69.465,11.054 -104.2503,16.6983 -3.2516,0.527 -5.0363,-1.7895 -3.901,-5.1298 3.8494,-11.3273 7.6467,-22.6809 11.5409,-34.0379 1.1444,-3.3367 4.9298,-6.77 8.2361,-7.5345 z"
         style="fill:#00bcec;fill-rule:evenodd;stroke:#000000;stroke-width:0.5669;stroke-linecap:round;stroke-linejoin:round;stroke-dasharray:none"
         id="path88" />
      <path
         d="m 534.8903,192.5294 c 0.1088,-0.2137 0.1632,-0.4274 0.2168,-0.6412 1.7343,-5.2636 3.4679,-10.5273 5.3104,-15.817 1.7334,-5.2367 3.5221,-10.5004 5.3102,-15.7901 1.7337,-5.2368 3.5759,-10.5268 5.3101,-15.8165 0.108,-0.2137 0.1625,-0.4011 0.2163,-0.6412"
         style="fill:none;stroke:#000000;stroke-width:0.5669;stroke-linecap:round;stroke-linejoin:round;stroke-dasharray:none"
         id="path90" />
      <path
         d="m 573.1991,186.3575 c 0.1083,-0.2673 0.1624,-0.481 0.1624,-0.6944 1.8964,-5.5574 3.6842,-11.115 5.6891,-16.7256 1.7884,-5.557 3.6304,-11.1141 5.4726,-16.6983 1.8425,-5.5571 3.7931,-11.1144 5.6353,-16.6983 0.1086,-0.2674 0.1624,-0.4811 0.2168,-0.6945"
         style="fill:none;stroke:#000000;stroke-width:0.5669;stroke-linecap:round;stroke-linejoin:round;stroke-dasharray:none"
         id="path92" />
      <path
         d="m 501.188,183.4452 c 0.2169,-0.0533 0.3793,-0.0802 0.5962,-0.1338 12.8415,-2.404 25.7374,-4.8353 38.6333,-7.2402 12.8413,-2.378 25.7372,-4.7557 38.6331,-7.1337 12.7877,-2.3508 25.6836,-4.6752 38.5251,-6.9996 0.1625,0 0.3793,-0.0272 0.5417,-0.0536"
         style="fill:none;stroke:#000000;stroke-width:0.5669;stroke-linecap:round;stroke-linejoin:round;stroke-dasharray:none"
         id="path94" />
      <path
         d="m 506.2269,168.5636 c 0.1627,-0.0536 0.3796,-0.1068 0.542,-0.1068 12.9501,-2.6986 25.954,-5.4505 38.9588,-8.1757 12.8415,-2.6714 25.846,-5.37 38.7955,-8.0419 12.9504,-2.672 25.846,-5.2637 38.7964,-7.8551 0.2168,-0.0536 0.3793,-0.0536 0.5955,-0.1069"
         style="fill:none;stroke:#000000;stroke-width:0.5669;stroke-linecap:round;stroke-linejoin:round;stroke-dasharray:none"
         id="path96" />
      <path
         d="m 500.4295,202.2009 c 34.732,-5.4223 69.3005,-10.8082 103.9796,-16.0843 3.2494,-0.4938 4.9235,2.3726 3.6303,6.3323 -4.3957,13.4598 -8.8339,26.8778 -13.2208,40.2902 -1.3016,3.9799 -4.9864,7.437 -8.1819,7.6947 -33.8658,2.7343 -67.7307,5.5619 -101.5957,8.3888 -3.2502,0.271 -4.9991,-2.2776 -3.9013,-5.6106 3.7242,-11.3074 7.5081,-22.6675 11.2703,-33.9843 1.1137,-3.3502 4.7696,-6.5194 8.0195,-7.0268 z"
         style="fill:#00bcec;fill-rule:evenodd;stroke:#000000;stroke-width:0.5669;stroke-linecap:round;stroke-linejoin:round;stroke-dasharray:none"
         id="path98" />
      <path
         d="m 517.3347,245.4831 c 0.1083,-0.2137 0.1627,-0.4002 0.2169,-0.6411 1.7337,-5.2637 3.4135,-10.5001 5.2016,-15.7629 1.7342,-5.2637 3.4679,-10.5274 5.2021,-15.7902 1.7337,-5.2367 3.4135,-10.5 5.2557,-15.7637 0.0539,-0.2137 0.1083,-0.4275 0.1624,-0.6676"
         style="fill:none;stroke:#000000;stroke-width:0.5669;stroke-linecap:round;stroke-linejoin:round;stroke-dasharray:none"
         id="path100" />
      <path
         d="m 554.722,242.3574 c 0.1086,-0.2137 0.1624,-0.4275 0.2169,-0.6948 1.7878,-5.557 3.6303,-11.1146 5.527,-16.6983 1.7878,-5.5307 3.5759,-11.0877 5.4181,-16.672 1.8425,-5.557 3.6303,-11.0877 5.5267,-16.6711 0.0542,-0.2146 0.1086,-0.4547 0.2169,-0.6953"
         style="fill:none;stroke:#000000;stroke-width:0.5669;stroke-linecap:round;stroke-linejoin:round;stroke-dasharray:none"
         id="path102" />
      <path
         d="m 484.4449,233.2732 c 0.2169,-0.0264 0.4337,-0.0533 0.65,-0.0797 12.5172,-1.3626 25.0875,-2.7524 37.6583,-4.1144 12.5708,-1.3629 25.0874,-2.7519 37.7127,-4.1148 12.5163,-1.3363 25.033,-2.645 37.6038,-3.9813 0.1624,0 0.3793,-0.0263 0.5417,-0.0533"
         style="fill:none;stroke:#000000;stroke-width:0.5669;stroke-linecap:round;stroke-linejoin:round;stroke-dasharray:none"
         id="path104" />
      <path
         d="m 489.4302,218.4185 c 0.1624,-0.0269 0.3793,-0.0805 0.5417,-0.0533 12.6247,-1.6835 25.3038,-3.393 37.9834,-5.0763 12.5702,-1.6571 25.3035,-3.3403 37.9287,-4.9966 12.6247,-1.6296 25.2499,-3.2595 37.929,-4.8625 0.1624,-0.0264 0.3793,-0.0533 0.5417,-0.0797"
         style="fill:none;stroke:#000000;stroke-width:0.5669;stroke-linecap:round;stroke-linejoin:round;stroke-dasharray:none"
         id="path106" />
      <path
         d="m 483.7949,252.51 c 33.8111,-2.6108 67.6222,-5.2322 101.4871,-7.7749 3.1428,-0.2353 4.7214,2.8086 3.4135,6.8131 -4.3812,13.4149 -8.5816,26.816 -12.8959,40.263 -1.266,3.9452 -4.8226,7.2122 -7.9107,7.2142 -33.1066,0.0238 -66.1592,0.0824 -99.2114,0.1068 -3.0881,0.002 -4.8243,-2.7269 -3.7392,-6.065 3.6825,-11.3286 7.323,-22.6533 10.9998,-33.9846 1.0911,-3.3624 4.6608,-6.326 7.8568,-6.5726 z"
         style="fill:#00bcec;fill-rule:evenodd;stroke:#000000;stroke-width:0.5669;stroke-linecap:round;stroke-linejoin:round;stroke-dasharray:none"
         id="path108" />
      <path
         d="m 660.9234,63.2965 c 35.9173,-10.1818 71.7381,-19.8626 107.339,-28.9083 3.3032,-0.839 4.9904,2.2201 3.522,6.7595 -4.9793,15.391 -9.8818,30.767 -14.8467,46.1146 -1.4822,4.5828 -5.527,8.8155 -8.7775,9.4578 -35.1116,6.9443 -70.3363,14.3456 -105.6597,22.1757 -3.3636,0.7455 -4.987,-1.8731 -3.6303,-5.9046 4.5493,-13.5218 8.911,-27.0535 13.4376,-40.6108 1.3249,-3.9693 5.1421,-8.0991 8.6156,-9.0839 z"
         style="fill:#01d7f3;fill-rule:evenodd;stroke:#000000;stroke-width:0.5669;stroke-linecap:round;stroke-linejoin:round;stroke-dasharray:none"
         id="path110" />
      <path
         d="m 676.3116,110.7201 c 0.1086,-0.2406 0.1624,-0.5079 0.2713,-0.775 2.0046,-6.1718 4.0096,-12.3701 6.0681,-18.5683 2.0049,-6.1988 4.1184,-12.4234 6.1234,-18.6225 2.0047,-6.1982 4.0635,-12.3701 6.1225,-18.5953 0.0545,-0.2401 0.1083,-0.4807 0.2169,-0.7744"
         style="fill:none;stroke:#000000;stroke-width:0.5669;stroke-linecap:round;stroke-linejoin:round;stroke-dasharray:none"
         id="path112" />
      <path
         d="m 715.108,102.5444 c 0.108,-0.2401 0.1624,-0.5071 0.2704,-0.7744 2.1674,-6.4925 4.2267,-12.9314 6.3397,-19.4238 2.1135,-6.4389 4.172,-12.9314 6.3394,-19.3967 2.0591,-6.4661 4.172,-12.905 6.2858,-19.4238 0.0536,-0.2409 0.108,-0.481 0.2169,-0.775"
         style="fill:none;stroke:#000000;stroke-width:0.5669;stroke-linecap:round;stroke-linejoin:round;stroke-dasharray:none"
         id="path114" />
      <path
         d="m 642.8256,101.1019 c 0.163,-0.0533 0.3793,-0.0805 0.5962,-0.1338 13.0583,-3.2057 26.1167,-6.4655 39.2292,-9.5913 13.0048,-3.0725 26.0629,-6.0919 39.0671,-9.0306 12.9501,-2.9121 25.9004,-5.6376 38.9044,-8.4427 0.1624,-0.0272 0.3792,-0.0805 0.5961,-0.1341"
         style="fill:none;stroke:#000000;stroke-width:0.5669;stroke-linecap:round;stroke-linejoin:round;stroke-dasharray:none"
         id="path116" />
      <path
         d="m 648.6775,83.3349 c 0.2713,-0.0541 0.3793,-0.0805 0.5961,-0.1607 13.1128,-3.473 26.3336,-6.9999 39.5008,-10.4199 13.0584,-3.3395 26.2247,-6.6257 39.2831,-9.8048 13.0045,-3.1799 26.0084,-6.199 39.0668,-9.2179 0.1627,-0.0264 0.3795,-0.0797 0.5964,-0.1333"
         style="fill:none;stroke:#000000;stroke-width:0.5669;stroke-linecap:round;stroke-linejoin:round;stroke-dasharray:none"
         id="path118" />
      <path
         d="m 641.092,123.2776 c 35.2706,-7.6337 70.4375,-14.8686 105.4964,-21.6414 3.2488,-0.6273 4.7736,2.6212 3.3055,7.1606 -4.9791,15.391 -9.9655,30.7806 -15.0089,46.1143 -1.5123,4.5975 -5.4737,8.6752 -8.7236,9.1106 -34.4078,4.6136 -68.9267,9.5839 -103.4924,14.8011 -3.3088,0.4994 -4.9059,-2.3375 -3.5759,-6.3584 4.4672,-13.506 8.9224,-27.0448 13.3832,-40.5304 1.3369,-4.0405 5.2535,-7.929 8.6157,-8.6564 z"
         style="fill:#01d7f3;fill-rule:evenodd;stroke:#000000;stroke-width:0.5669;stroke-linecap:round;stroke-linejoin:round;stroke-dasharray:none"
         id="path120" />
      <path
         d="m 655.7757,173.1325 c 0.1089,-0.2679 0.1089,-0.4813 0.1624,-0.7486 2.0594,-6.1983 4.0641,-12.3701 6.177,-18.5953 2.0594,-6.1982 4.064,-12.3965 6.069,-18.5683 2.0591,-6.2255 4.172,-12.4237 6.2314,-18.6758 0.0539,-0.2401 0.108,-0.4539 0.2163,-0.7212"
         style="fill:none;stroke:#000000;stroke-width:0.5669;stroke-linecap:round;stroke-linejoin:round;stroke-dasharray:none"
         id="path122" />
      <path
         d="m 693.8133,167.6282 c 0.1082,-0.2401 0.1624,-0.5071 0.2707,-0.7744 2.0591,-6.4659 4.172,-12.905 6.3394,-19.3975 2.1135,-6.4383 4.2264,-12.9042 6.2858,-19.3697 2.1674,-6.4658 4.3347,-12.9583 6.4477,-19.4502 0.1085,-0.2407 0.1085,-0.5077 0.271,-0.7487"
         style="fill:none;stroke:#000000;stroke-width:0.5669;stroke-linecap:round;stroke-linejoin:round;stroke-dasharray:none"
         id="path124" />
      <path
         d="m 623.1027,160.6017 c 0.1625,-0.0536 0.3793,-0.0536 0.5417,-0.1069 12.7877,-2.2442 25.6292,-4.4887 38.4707,-6.7062 12.7335,-2.137 25.5212,-4.2749 38.3083,-6.3323 12.7335,-2.0302 25.4667,-3.9804 38.2002,-5.9309 0.2169,0 0.3793,-0.0264 0.5961,-0.08"
         style="fill:none;stroke:#000000;stroke-width:0.5669;stroke-linecap:round;stroke-linejoin:round;stroke-dasharray:none"
         id="path126" />
      <path
         d="m 628.9004,142.861 c 0.2169,-0.0263 0.4337,-0.0535 0.5962,-0.1068 12.8959,-2.5112 25.7916,-5.0763 38.6875,-7.5339 12.8415,-2.4585 25.7374,-4.8362 38.5251,-7.1337 12.8415,-2.2981 25.6292,-4.4884 38.4707,-6.6796 0.1624,-0.0263 0.3792,-0.0799 0.5961,-0.1332"
         style="fill:none;stroke:#000000;stroke-width:0.5669;stroke-linecap:round;stroke-linejoin:round;stroke-dasharray:none"
         id="path128" />
      <path
         d="m 621.1522,183.2046 c 34.5646,-5.0295 69.0319,-9.7694 103.4374,-14.2671 3.1977,-0.4175 4.7843,2.9727 3.3055,7.5076 -5.0228,15.3963 -9.9842,30.7967 -14.9545,46.1415 -1.4766,4.5598 -5.4196,8.4382 -8.5612,8.6564 -33.7572,2.3457 -67.5153,4.8447 -101.3788,7.4807 -3.1978,0.2486 -4.7175,-2.7828 -3.4141,-6.7862 4.3855,-13.4702 8.7945,-27.0315 13.2752,-40.5572 1.3164,-3.9734 5.0361,-7.7026 8.2905,-8.1757 z"
         style="fill:#01d7f3;fill-rule:evenodd;stroke:#000000;stroke-width:0.5669;stroke-linecap:round;stroke-linejoin:round;stroke-dasharray:none"
         id="path130" />
      <path
         d="m 635.3487,235.491 c 0.108,-0.2673 0.1624,-0.5079 0.2704,-0.7753 2.0594,-6.1982 4.0099,-12.3698 6.0146,-18.568 2.0049,-6.1719 4.064,-12.3438 6.0689,-18.5692 2.0047,-6.1719 4.0635,-12.3965 6.1226,-18.5953 0.0544,-0.2401 0.1624,-0.5071 0.2168,-0.7481"
         style="fill:none;stroke:#000000;stroke-width:0.5669;stroke-linecap:round;stroke-linejoin:round;stroke-dasharray:none"
         id="path132" />
      <path
         d="m 672.6268,232.7119 c 0.1089,-0.267 0.163,-0.5343 0.2713,-0.8013 2.0591,-6.4653 4.172,-12.9045 6.2853,-19.3966 2.1135,-6.4392 4.2264,-12.9045 6.2855,-19.3706 2.1674,-6.4653 4.2259,-12.9308 6.3397,-19.4233 0.0541,-0.2406 0.1624,-0.4807 0.2704,-0.7486"
         style="fill:none;stroke:#000000;stroke-width:0.5669;stroke-linecap:round;stroke-linejoin:round;stroke-dasharray:none"
         id="path134" />
      <path
         d="m 603.4881,220.0212 c 0.1625,0 0.3793,-0.0263 0.5417,-0.0533 12.5164,-1.2824 25.0331,-2.5645 37.6039,-3.8202 12.5166,-1.256 24.9792,-2.4585 37.5497,-3.6337 12.4625,-1.1756 24.9792,-2.2712 37.4411,-3.3931 0.2169,0 0.3796,-0.0269 0.5964,-0.0536"
         style="fill:none;stroke:#000000;stroke-width:0.5669;stroke-linecap:round;stroke-linejoin:round;stroke-dasharray:none"
         id="path136" />
      <path
         d="m 609.2855,202.3342 c 0.1628,-0.0264 0.3796,-0.0264 0.542,-0.0533 12.6253,-1.5766 25.2499,-3.1524 37.8751,-4.7024 12.6247,-1.5231 25.1955,-3.0189 37.7663,-4.4351 12.5708,-1.4425 25.1413,-2.7782 37.7121,-4.1408 0.2169,-0.0273 0.3793,-0.0536 0.5962,-0.0806"
         style="fill:none;stroke:#000000;stroke-width:0.5669;stroke-linecap:round;stroke-linejoin:round;stroke-dasharray:none"
         id="path138" />
      <path
         d="m 601.6456,243.1324 c 33.7561,-2.4605 67.4592,-4.8019 101.162,-6.9733 3.1961,-0.2057 4.6545,3.3376 3.1972,7.8815 -4.936,15.3865 -9.8192,30.774 -14.6299,46.1409 -1.4202,4.5366 -5.0941,8.2514 -8.2358,8.2562 -33.1067,0.0479 -66.1598,0.0598 -99.2114,0.1333 -3.1428,0.006 -4.7294,-3.2125 -3.468,-7.2136 4.2645,-13.5256 8.5697,-27.0587 12.9498,-40.5309 1.3091,-4.0275 4.9856,-7.4574 8.2361,-7.6941 z"
         style="fill:#01d7f3;fill-rule:evenodd;stroke:#000000;stroke-width:0.5669;stroke-linecap:round;stroke-linejoin:round;stroke-dasharray:none"
         id="path140" />
      <g
         id="Layer1004">
        <path
           d="m 270.0074,299.5002 c 0.1054,-0.1296 0.1584,-0.2631 0.1584,-0.3997 1.0571,-3.3767 2.2193,-6.7726 3.3823,-10.1682 1.0571,-3.3763 2.2723,-6.7683 3.3823,-10.1679 1.1625,-3.3687 2.3256,-6.7646 3.4878,-10.161 0.053,-0.1327 0.053,-0.2702 0.1584,-0.3991"
           style="fill:none;stroke:#000000;stroke-width:0.5669;stroke-linecap:round;stroke-linejoin:round;stroke-dasharray:none"
           id="path142" />
        <path
           d="m 306.3671,299.3343 c 0.0524,-0.1607 0.1054,-0.2942 0.2109,-0.4507 1.1097,-3.6462 2.3252,-7.3128 3.5407,-10.9788 1.1631,-3.6698 2.4313,-7.3324 3.6468,-10.9985 1.2685,-3.662 2.484,-7.3287 3.7522,-10.9907 0.0528,-0.1608 0.0528,-0.2705 0.1058,-0.4309"
           style="fill:none;stroke:#000000;stroke-width:0.5669;stroke-linecap:round;stroke-linejoin:round;stroke-dasharray:none"
           id="path144" />
        <path
           d="m 236.4486,289.7555 c 0.1584,0.0119 0.3169,-0.004 0.5283,-0.0156 12.208,-0.2497 24.3102,-0.4799 36.5712,-0.8076 12.102,-0.3129 24.3627,-0.6403 36.5706,-1.0275 12.208,-0.387 24.4687,-0.7971 36.6767,-1.211 0.2114,-0.0122 0.3699,-0.0275 0.5814,-0.0397"
           style="fill:none;stroke:#000000;stroke-width:0.5669;stroke-linecap:round;stroke-linejoin:round;stroke-dasharray:none"
           id="path146" />
        <path
           d="m 239.6194,280.3944 c 0.1585,-0.0153 0.3169,-0.0315 0.5284,-0.0159 12.2079,-0.5236 24.4686,-1.0434 36.7826,-1.6141 12.2604,-0.5754 24.5211,-1.205 36.8351,-1.8581 12.261,-0.6573 24.6274,-1.3884 36.9405,-2.069 0.1585,0.0119 0.37,-0.0275 0.5287,-0.0433"
           style="fill:none;stroke:#000000;stroke-width:0.5669;stroke-linecap:round;stroke-linejoin:round;stroke-dasharray:none"
           id="path148" />
      </g>
      <g
         id="Layer1005">
        <path
           d="m 385.3497,299.5106 c 0.1131,-0.1635 0.1737,-0.3319 0.1814,-0.5042 1.252,-4.2591 2.6104,-8.5422 3.9696,-12.8254 1.2518,-4.2588 2.6635,-8.5371 3.9697,-12.8251 1.3569,-4.2491 2.7161,-8.5322 4.0748,-12.8162 0.0606,-0.1676 0.0686,-0.3411 0.1817,-0.5038"
           style="fill:none;stroke:#000000;stroke-width:0.5669;stroke-linecap:round;stroke-linejoin:round;stroke-dasharray:none"
           id="path151" />
        <path
           d="m 421.7967,299.3014 c 0.0618,-0.2026 0.1224,-0.371 0.2373,-0.5686 1.3203,-4.5989 2.7473,-9.2236 4.1745,-13.8478 1.3748,-4.629 2.8548,-9.2489 4.2821,-13.8727 1.4799,-4.6191 2.9072,-9.2441 4.3871,-13.8632 0.0618,-0.2026 0.0681,-0.3407 0.1304,-0.5434"
           style="fill:none;stroke:#000000;stroke-width:0.5669;stroke-linecap:round;stroke-linejoin:round;stroke-dasharray:none"
           id="path153" />
        <path
           d="m 352.2745,287.2193 c 0.1581,0.0151 0.3177,-0.004 0.5306,-0.0198 12.2482,-0.3146 24.3899,-0.6052 36.6956,-1.0185 12.1456,-0.3946 24.4517,-0.8079 36.7078,-1.296 12.2562,-0.4881 24.5668,-1.0054 36.8246,-1.5276 0.2126,-0.0153 0.3722,-0.0346 0.5848,-0.0499"
           style="fill:none;stroke:#000000;stroke-width:0.5669;stroke-linecap:round;stroke-linejoin:round;stroke-dasharray:none"
           id="path155" />
        <path
           d="m 355.9861,275.4116 c 0.1596,-0.0193 0.3195,-0.0394 0.5304,-0.0198 12.2641,-0.6605 24.5809,-1.3161 36.9539,-2.0359 12.3193,-0.7259 24.6427,-1.5196 37.0202,-2.3436 12.3247,-0.8289 24.7594,-1.7516 37.1378,-2.6096 0.1582,0.0147 0.3725,-0.0346 0.5323,-0.055"
           style="fill:none;stroke:#000000;stroke-width:0.5669;stroke-linecap:round;stroke-linejoin:round;stroke-dasharray:none"
           id="path157" />
      </g>
      <path
         d="m 500.188,299.0693 c 0.1236,-0.1973 0.1953,-0.4003 0.2143,-0.6083 1.529,-5.1364 3.1663,-10.3023 4.8041,-15.4678 1.529,-5.1364 3.219,-10.2963 4.8042,-15.4681 1.6336,-5.1245 3.2714,-10.2904 4.909,-15.4571 0.0717,-0.2021 0.0907,-0.411 0.2143,-0.6071"
         style="fill:none;stroke:#000000;stroke-width:0.5669;stroke-linecap:round;stroke-linejoin:round;stroke-dasharray:none"
         id="path160" />
      <path
         d="m 536.6489,298.817 c 0.0748,-0.2443 0.1465,-0.4473 0.2741,-0.6857 1.6194,-5.5465 3.3477,-11.1243 5.0757,-16.7012 1.6759,-5.5828 3.4566,-11.1546 5.1849,-16.7315 1.7804,-5.5709 3.5087,-11.1486 5.2894,-16.7195 0.0748,-0.2444 0.0901,-0.4111 0.1656,-0.6554"
         style="fill:none;stroke:#000000;stroke-width:0.5669;stroke-linecap:round;stroke-linejoin:round;stroke-dasharray:none"
         id="path162" />
      <path
         d="m 467.9127,284.2455 c 0.157,0.0184 0.318,-0.004 0.5318,-0.0215 12.2689,-0.3198 24.4292,-0.6106 36.7619,-1.0489 12.1714,-0.4164 24.5044,-0.8546 36.7923,-1.3833 12.2879,-0.5286 24.6322,-1.0921 36.9238,-1.6622 0.2138,-0.0173 0.3748,-0.04 0.5882,-0.0573"
         style="fill:none;stroke:#000000;stroke-width:0.5669;stroke-linecap:round;stroke-linejoin:round;stroke-dasharray:none"
         id="path164" />
      <path
         d="m 473.0902,268.1033 c 0.1601,-0.0207 0.32,-0.0425 0.5286,-0.0153 12.2307,-0.5887 24.5138,-1.1707 36.8567,-1.8292 12.2899,-0.6664 24.5882,-1.415 36.9425,-2.1991 12.3018,-0.7906 24.7192,-1.6923 37.0766,-2.5174 0.1562,0.0207 0.3722,-0.0355 0.5323,-0.057"
         style="fill:none;stroke:#000000;stroke-width:0.5669;stroke-linecap:round;stroke-linejoin:round;stroke-dasharray:none"
         id="path166" />
      <path
         d="m 615.9858,298.5049 c 0.1321,-0.2341 0.2126,-0.4771 0.2404,-0.7276 1.7487,-6.1546 3.6073,-12.3412 5.466,-18.5276 1.749,-6.1548 3.6595,-12.3324 5.4664,-18.5278 1.8527,-6.137 3.7116,-12.3233 5.5703,-18.5113 0.0802,-0.2416 0.1083,-0.4936 0.2404,-0.7266"
         style="fill:none;stroke:#000000;stroke-width:0.5669;stroke-linecap:round;stroke-linejoin:round;stroke-dasharray:none"
         id="path168" />
      <path
         d="m 652.4575,298.4649 c 0.0853,-0.2857 0.1658,-0.5229 0.3033,-0.7999 1.857,-6.4882 3.8239,-13.0102 5.7906,-19.5307 1.9148,-6.5293 3.9339,-13.0425 5.9009,-19.563 2.0188,-6.5121 3.9858,-13.0337 6.0049,-19.5458 0.0853,-0.2857 0.1077,-0.4818 0.1936,-0.7673"
         style="fill:none;stroke:#000000;stroke-width:0.5669;stroke-linecap:round;stroke-linejoin:round;stroke-dasharray:none"
         id="path170" />
      <path
         d="m 584.3449,280.3748 c 0.1554,0.0252 0.3164,6e-4 0.5292,-0.017 12.2035,-0.1826 24.2981,-0.3319 36.5701,-0.6571 12.1107,-0.3019 24.3828,-0.627 36.614,-1.0633 12.2315,-0.4359 24.5202,-0.9136 36.7568,-1.3997 0.2132,-0.0176 0.3739,-0.0422 0.5871,-0.0598"
         style="fill:none;stroke:#000000;stroke-width:0.5669;stroke-linecap:round;stroke-linejoin:round;stroke-dasharray:none"
         id="path172" />
      <path
         d="m 589.4342,263.2212 c 0.1622,-0.0229 0.324,-0.0476 0.5329,-0.0119 12.341,-0.5709 24.7346,-1.133 37.1915,-1.7872 12.4041,-0.6645 24.8198,-1.4284 37.2937,-2.2349 12.4214,-0.8152 24.9636,-1.7637 37.4423,-2.6203 0.1564,0.0269 0.3764,-0.0386 0.5385,-0.0629"
         style="fill:none;stroke:#000000;stroke-width:0.5669;stroke-linecap:round;stroke-linejoin:round;stroke-dasharray:none"
         id="path174" />
      <path
         d="m 514.5185,268.1898 c -6.7799,0.5224 -13.5598,1.0485 -20.342,1.5401 -1.4034,0.1017 -2.8893,-0.0145 -4.1363,-0.7232 -1.4944,-0.8495 -2.2921,-2.3516 -2.2566,-4.0609 0.0385,-1.845 1.3376,-3.1311 3.0622,-3.5835 1.1228,-0.2948 2.3361,-0.4159 3.492,-0.4921 8.0589,-0.5321 16.1181,-1.0545 24.1773,-1.5784 0.955,-0.6406 2.1396,-0.9927 3.223,-1.2395 2.1245,-0.4845 4.4317,-0.6962 6.603,-0.8476 2.0551,-0.1432 4.3617,-0.2667 6.4106,-0.0238 0.9969,0.1182 2.0307,0.3744 2.8661,0.8804 6.5573,-0.4147 13.115,-0.8257 19.6735,-1.2214 1.2501,-0.0754 2.6275,-0.0732 3.8308,0.3095 1.7246,0.5485 3.0778,1.9052 2.8667,3.8344 l -0.0193,0.1747 -0.0406,0.1709 c -0.3585,1.5131 -1.5885,2.4001 -2.9692,2.9046 -1.1078,0.4051 -2.272,0.6016 -3.445,0.6891 -6.6487,0.497 -13.2973,0.9933 -19.9454,1.4965 -0.8442,2.4148 -1.6027,4.8866 -2.1104,7.38 -0.5411,2.6563 -0.9541,5.3795 -1.0497,8.0917 -0.0575,1.6297 0.042,3.265 0.2217,4.8847 0.1854,1.6702 0.521,3.3242 0.9493,4.9482 l 0.0938,0.3554 v 0.3674 c 0,4.8725 -7.5741,4.8195 -10.8813,4.8231 -1.3898,0.002 -2.7794,-0.0686 -4.1635,-0.193 -2.4455,-0.2202 -6.4327,-0.5681 -7.2165,-3.441 -0.5179,-1.8992 -0.9295,-3.8372 -1.1474,-5.7954 -0.2112,-1.8967 -0.2991,-3.8095 -0.2115,-5.7172 0.1315,-2.8701 0.4606,-5.7141 1.0423,-8.5292 0.3762,-1.8201 0.8646,-3.6235 1.4224,-5.4045 z m -128.0846,0.1757 c 0.8192,-1.6404 2.78,-2.0715 4.4354,-2.3487 2.1263,-0.3561 4.3707,-0.5103 6.5217,-0.6404 2.0965,-0.1267 4.3928,-0.2475 6.4865,-0.0629 0.7656,0.0674 1.5743,0.1874 2.2924,0.4702 1.3793,0.5434 2.3473,1.7434 2.2731,3.2726 l -0.0298,0.6186 -0.2855,0.5499 c -1.2557,2.4199 -2.4919,5.0037 -3.2717,7.6215 -0.6046,2.0293 -1.0273,4.1695 -1.067,6.2915 -0.0192,1.029 0.0607,2.0534 0.224,3.0657 10.2092,-0.1849 20.4185,-0.3909 30.6278,-0.5797 1.1009,-0.0204 2.2025,0.0646 3.2859,0.2633 1.9675,0.3609 3.9883,1.4205 3.9002,3.7531 -0.1216,3.2099 -3.676,3.7329 -6.1623,3.8239 -10.2234,0.3748 -20.4471,0.7427 -30.6714,1.0919 -2.615,0.0893 -5.2299,0.1778 -7.8452,0.2617 -0.9694,0.0312 -1.9717,0.0864 -2.9403,0.0864 -3.8382,0 -9.7949,-0.4008 -11.4716,-4.6071 -0.8532,-2.1407 -1.3283,-4.3852 -1.3065,-6.6943 0.025,-2.626 0.5485,-5.2586 1.3048,-7.7664 0.8847,-2.9341 2.2459,-5.7781 3.6995,-8.4708 z m -84.7973,20.7304 c -7.9015,0.3004 -15.8034,0.5859 -23.7061,0.849 -1.0684,0.8441 -2.1147,1.7203 -3.1113,2.6464 -1.1305,1.0502 -2.2468,2.1223 -3.3126,3.2386 l -0.074,0.0773 -0.0793,0.0718 c -0.8629,0.7769 -2.0441,1.0431 -3.1638,1.1829 -1.019,0.1272 -2.0466,0.1848 -3.0733,0.1848 -1.2373,0 -2.5954,-0.019 -3.816,-0.2293 -1.7779,-0.3068 -3.4376,-1.3264 -3.4376,-3.3631 0,-0.8923 0.3733,-1.7212 0.8759,-2.4406 0.951,-1.4814 2.0512,-2.8797 3.1847,-4.2242 1.3391,-1.588 2.8319,-3.0625 4.3495,-4.4269 1.9905,-1.8816 4.3489,-3.5237 6.7051,-4.9793 2.899,-1.7912 5.9734,-3.3446 9.07,-4.7622 1.2164,-0.557 3.1842,-0.7432 4.515,-0.8694 2.6011,-0.2469 5.2416,-0.3588 7.8523,-0.4487 2.3505,-0.0811 4.7061,-0.1276 7.058,-0.1145 1.5174,0.009 3.7267,0.0572 5.1097,0.7152 l 0.0726,0.0345 0.0703,0.0386 c 2.5222,1.3805 4.9983,2.882 7.3267,4.5714 1.995,1.4477 3.9223,3.0218 5.6849,4.7469 l 0.0314,0.0309 0.0306,0.0318 c 1.499,1.5616 2.9107,3.2076 4.1891,4.9549 1.2172,1.6634 2.3079,3.4212 3.2624,5.2478 l 0.3223,0.6168 v 0.6959 c 0,1.8777 -1.4585,2.8477 -3.0674,3.2389 -0.9814,0.2387 -2.0489,0.3557 -3.0535,0.4499 -2.4874,0.2332 -4.9858,0.3432 -7.484,0.3446 -1.4434,9e-4 -2.9537,-0.0198 -4.3875,-0.1938 -1.3853,-0.1681 -2.8366,-0.5049 -3.6779,-1.7394 l -0.0743,-0.1088 -0.0638,-0.1154 c -0.6709,-1.2127 -1.3887,-2.3992 -2.1943,-3.5277 -0.5987,-0.8388 -1.2577,-1.6416 -1.9338,-2.4256 z m 348.0528,-12.4314 c -7.9942,0.5264 -15.9879,1.0593 -23.9822,1.5815 -1.2645,1.7365 -2.4695,3.5169 -3.5935,5.3475 -1.294,2.1073 -2.6016,4.2203 -3.7598,6.4061 l -0.0355,0.0669 -0.0391,0.0649 c -0.7594,1.2645 -2.0993,1.9159 -3.488,2.2374 -1.1512,0.2661 -2.2947,0.3965 -3.4764,0.4039 -1.4114,0.009 -3.0297,-0.0558 -4.3849,-0.4751 -1.8006,-0.5567 -3.2074,-1.9029 -3.1428,-3.8951 0.0278,-0.8501 0.4201,-1.7855 0.7211,-2.5787 1.0341,-2.7249 2.255,-5.3841 3.5422,-7.9976 1.415,-2.8727 3.0027,-5.6651 4.6828,-8.3903 2.0886,-3.388 4.517,-6.5562 7.1708,-9.5202 3.0002,-3.3505 6.3213,-6.4371 9.773,-9.316 2.5461,-2.1234 10.3969,-2.4421 13.5933,-2.6017 2.4792,-0.1235 4.9825,-0.1989 7.4645,-0.1286 1.961,0.0555 4.4849,0.3103 5.9578,1.7515 l 0.0403,0.0394 0.0385,0.0411 c 2.6419,2.7986 5.135,5.7597 7.3664,8.8977 2.0517,2.8845 3.9458,5.9028 5.5111,9.0459 1.5568,2.9608 2.8608,6.0681 4.0267,9.2338 1.1486,3.119 2.1265,6.2969 3.0106,9.5003 l 0.1256,0.4556 -0.0289,0.4714 c -0.1877,3.0708 -3.7794,3.8599 -6.2065,4.2695 -2.6543,0.4479 -5.3407,0.6775 -8.0328,0.6888 -2.7771,0.0119 -7.6093,-0.0127 -8.6678,-3.2762 l -0.0226,-0.0701 -0.0193,-0.0711 c -0.6418,-2.3967 -1.3842,-4.765 -2.2105,-7.1042 -0.6032,-1.7076 -1.2316,-3.4087 -1.9341,-5.0783 z m -359.4421,5.1846 c 1.0171,-0.0159 2.0341,-0.032 3.0512,-0.0482 -0.4382,-0.2948 -0.8799,-0.5836 -1.3257,-0.8668 -0.578,0.2996 -1.1532,0.6046 -1.7255,0.915 z m 354.7664,-14.1588 c -0.5068,-0.8061 -1.0327,-1.6001 -1.5738,-2.3822 -0.9714,-1.4032 -1.9928,-2.77 -3.0628,-4.0983 -1.6433,1.5497 -3.2448,3.1453 -4.7914,4.7899 -0.6191,0.658 -1.2337,1.3218 -1.8408,1.9925 3.7561,-0.1009 7.5126,-0.2015 11.2688,-0.3019 z"
         style="fill:#ffffff;fill-rule:evenodd"
         id="path176" />
      <path
         d="m 649.8264,270.398 c -1.1591,-2.251 -2.524,-4.4892 -4.0558,-6.7031 -1.5302,-2.2099 -3.2281,-4.4065 -5.1319,-6.5801 -2.5651,2.31 -4.9527,4.6403 -7.1181,6.9429 -2.1784,2.3165 -4.2208,4.6202 -6.0417,6.9387 7.4077,-0.1993 14.8566,-0.3994 22.3475,-0.5984 z m -125.0368,24.0375 c -1.3006,8e-4 -2.6048,-0.0641 -3.9062,-0.1817 -2.9194,-0.2625 -4.5567,-0.7061 -4.7358,-1.3635 -0.4901,-1.7963 -0.8685,-3.5946 -1.065,-5.3631 -0.1973,-1.7686 -0.2772,-3.5297 -0.1973,-5.2736 0.1165,-2.5359 0.3974,-5.2333 0.9868,-8.0855 0.5947,-2.8778 1.5389,-5.9117 2.7221,-9.1347 -8.2072,0.6287 -16.4143,1.249 -24.6226,1.8692 -2.249,0.1375 -3.3832,-0.4913 -3.354,-1.8978 0.009,-0.4329 0.3164,-0.7356 0.9477,-0.9009 0.7092,-0.1865 1.6571,-0.3155 2.9593,-0.4053 8.3656,-0.5482 16.7701,-1.0967 25.1354,-1.6404 0.6313,-0.9777 3.6306,-1.6597 8.8784,-2.0257 5.2087,-0.3631 7.8126,-0.0479 7.9707,0.9392 6.9449,-0.4394 13.9289,-0.8782 20.9529,-1.3023 1.2623,-0.0757 2.1699,-0.0193 2.8012,0.1814 0.631,0.2007 0.9468,0.4672 0.9076,0.8246 -0.0791,0.3337 -0.4739,0.6364 -1.1843,0.8963 -0.7483,0.2733 -1.6169,0.4386 -2.683,0.5247 -7.2995,0.5389 -14.5598,1.0874 -21.7811,1.6356 -1.2232,3.3319 -2.2283,6.4936 -2.8412,9.5018 -0.6094,2.9936 -1.0097,5.8532 -1.1049,8.5575 -0.0621,1.7532 0.04,3.5237 0.2372,5.2974 0.1965,1.7733 0.5519,3.5611 1.0259,5.3583 0,1.3158 -2.6838,1.9817 -8.0498,1.9885 z m -130.5819,-1.366 c -5.1296,0 -8.089,-0.934 -8.8385,-2.8222 -0.7503,-1.8743 -1.1222,-3.7443 -1.1049,-5.6177 0.021,-2.1693 0.4402,-4.5085 1.184,-6.9749 0.754,-2.501 1.9726,-5.1551 3.5116,-8.0008 0.2764,-0.6395 3.1969,-1.1214 8.602,-1.4479 5.4059,-0.3266 8.0889,-0.0947 8.0498,0.7131 -1.4998,2.8903 -2.7176,5.5852 -3.4724,8.1179 -0.7441,2.4985 -1.1432,4.8614 -1.1843,7.0478 -0.0372,1.997 0.2375,3.9889 0.7894,5.9944 10.9695,-0.1947 21.9396,-0.4039 32.9488,-0.6213 0.9859,-0.005 1.8935,0.0683 2.7221,0.2174 1.0261,0.191 1.5936,0.4773 1.5789,0.8577 -0.0244,0.6537 -1.184,1.0168 -3.4333,1.0985 -27.108,0.9941 -40.8793,1.438 -41.3532,1.438 z m -92.9467,-8.5638 c -1.184,-1.1613 -2.5639,-2.3173 -4.1045,-3.4531 -1.5361,-1.1325 -3.1958,-2.2556 -5.0502,-3.367 -2.4075,1.2024 -4.6112,2.4157 -6.6294,3.6079 -2.0064,1.1849 -3.867,2.3593 -5.5242,3.5442 7.1022,-0.1001 14.2053,-0.2138 21.3083,-0.332 z m -36.1448,10.0063 c -2.9993,0 -4.4189,-0.2491 -4.4189,-0.7577 0,-0.1318 0.0782,-0.4175 0.3937,-0.8577 0.8286,-1.2977 1.8553,-2.6229 2.9993,-3.9799 1.1444,-1.3569 2.5248,-2.7501 4.1037,-4.17 1.6572,-1.5662 3.7908,-3.1184 6.2737,-4.652 2.4882,-1.5378 5.4059,-3.0767 8.7602,-4.5963 1.0258,-0.4859 4.8138,-0.8351 11.2847,-1.0625 2.6048,-0.0853 4.9723,-0.1236 6.9449,-0.1128 1.9726,0.0111 3.3151,0.1585 3.9073,0.4402 2.6438,1.4471 4.9821,2.8987 7.0228,4.3793 2.0228,1.4678 3.8282,2.9721 5.3668,4.4782 1.4599,1.5207 2.7768,3.0668 3.9464,4.6658 1.1577,1.5814 2.1699,3.2258 3.0376,4.8866 0,0.3546 -1.2231,0.6449 -3.5507,0.8666 -2.368,0.2182 -4.7746,0.3302 -7.2212,0.3322 -3.4713,0.002 -5.406,-0.2322 -5.7215,-0.6951 -0.7103,-1.284 -1.4825,-2.5628 -2.3675,-3.8023 -0.8895,-1.2462 -1.9335,-2.4594 -2.9993,-3.6627 -8.6811,0.3319 -17.3222,0.6449 -25.9639,0.9303 -1.4599,1.1262 -2.8094,2.2431 -4.0247,3.3724 -1.1914,1.1069 -2.3672,2.2411 -3.4333,3.3579 -0.2364,0.2129 -0.7883,0.3731 -1.618,0.4765 -0.8666,0.1083 -1.7753,0.163 -2.7221,0.163 z m 346.1811,-4.574 c -3.1448,0.0202 -4.7084,-0.4674 -4.6769,-1.4434 0.009,-0.2619 0.2069,-0.8075 0.538,-1.665 0.9519,-2.5229 2.13,-5.1013 3.435,-7.7508 1.3012,-2.641 2.814,-5.3731 4.5528,-8.1553 1.8621,-3.0586 4.1533,-6.0826 6.8697,-9.1168 2.7043,-3.0194 5.8771,-6.0397 9.4768,-9.03 1.118,-0.9442 5.091,-1.6016 11.9189,-1.9474 2.7317,-0.131 5.1746,-0.1845 7.2428,-0.1264 2.069,0.0592 3.4758,0.3767 4.0558,0.9442 2.6898,2.8494 5.0774,5.7251 7.1178,8.5946 2.0576,2.8931 3.8489,5.7861 5.2979,8.6947 1.531,2.9129 2.7749,5.8944 3.8897,8.9221 1.118,3.0348 2.069,6.1251 2.9381,9.2747 -0.0411,0.6721 -1.324,1.2206 -3.8488,1.6472 -2.4832,0.4184 -5.008,0.6383 -7.5731,0.6494 -3.6417,0.0153 -5.6696,-0.4221 -5.9595,-1.3161 -0.6622,-2.473 -1.4242,-4.9048 -2.276,-7.3151 -0.8444,-2.391 -1.7382,-4.7693 -2.8139,-7.0929 -9.188,0.6038 -18.2095,1.2067 -27.2733,1.7972 -1.6551,2.2099 -3.1603,4.4073 -4.5111,6.6073 -1.3382,2.1792 -2.6897,4.3747 -3.8488,6.5619 -0.2481,0.413 -0.8261,0.7339 -1.6969,0.9349 -0.9501,0.2202 -1.8629,0.3257 -2.855,0.331 z"
         style="fill:#000000;fill-rule:evenodd"
         id="path178" />
    </g>
  </g>
</svg>
